<?xml version="1.0" encoding="UTF-8"?>
<svg version="1.1" xmlns="http://www.w3.org/2000/svg" width="129" height="117">
<path d="M0 0 C42.57 0 85.14 0 129 0 C129 38.61 129 77.22 129 117 C86.43 117 43.86 117 0 117 C0 78.39 0 39.78 0 0 Z " fill="#FAFCFE" transform="translate(0,0)"/>
<path d="M0 0 C3.04248448 1.50956867 4.71112098 3.16811014 6.32250977 6.15234375 C6.25506641 8.9849645 5.68027358 10.54204078 4.26000977 12.96484375 C1.02245274 14.9491529 -2.0550311 14.67945081 -5.67749023 14.15234375 C-9.07037567 13.25351252 -12.39202992 12.22656582 -15.72436523 11.125 C-18.03670955 10.36339453 -20.30790874 9.69872783 -22.67749023 9.15234375 C-22.04269171 12.20364747 -22.04269171 12.20364747 -20.00683594 13.04370117 C-18.94082153 13.39718628 -18.94082153 13.39718628 -17.85327148 13.7578125 C-17.07145508 14.01884766 -16.28963867 14.27988281 -15.48413086 14.54882812 C-14.66106445 14.80986328 -13.83799805 15.07089844 -12.98999023 15.33984375 C-12.18625977 15.61248047 -11.3825293 15.88511719 -10.55444336 16.16601562 C-6.1754811 17.59463863 -2.33541398 18.67991783 2.32250977 18.15234375 C5.7956676 16.08919859 5.7956676 16.08919859 8.32250977 13.15234375 C8.60965881 11.10240452 8.60965881 11.10240452 8.69750977 8.90234375 C9.11507507 6.17210906 9.71989614 4.66085324 11.84838867 2.86474609 C13.8542327 1.49813275 15.89291239 0.27670856 18.01000977 -0.91015625 C18.70594238 -1.30428711 19.401875 -1.69841797 20.11889648 -2.10449219 C24.65989104 -4.47416793 28.09703744 -5.3741522 33.32250977 -4.84765625 C35.26000977 -3.78515625 35.26000977 -3.78515625 36.32250977 -1.84765625 C36.82250977 1.58984375 36.82250977 1.58984375 36.32250977 5.15234375 C33.19135377 8.04861968 29.83002335 10.11196999 26.07641602 12.10546875 C24.5821106 12.90549316 24.5821106 12.90549316 23.05761719 13.72167969 C22.01065674 14.27629883 20.96369629 14.83091797 19.88500977 15.40234375 C17.72544859 16.55727271 15.56659119 17.71351863 13.40844727 18.87109375 C12.36527344 19.43054688 11.32209961 19.99 10.24731445 20.56640625 C5.38634078 23.20220633 0.60570088 25.96808918 -4.16577148 28.76171875 C-9.78354814 31.87202744 -15.40126901 31.63451183 -21.67749023 31.15234375 C-23.70648991 30.51666444 -25.51936321 29.72825176 -27.43310547 28.80957031 C-30.3048534 27.96863205 -32.4844418 28.43577222 -35.44311523 28.80859375 C-38.65600586 28.84960938 -38.65600586 28.84960938 -41.67749023 28.15234375 C-45.22697975 24.66953978 -47.23460126 20.57799241 -49.42749023 16.15234375 C-50.04108398 15.00765625 -50.65467773 13.86296875 -51.28686523 12.68359375 C-52.7933122 9.85900569 -54.25308739 7.0189386 -55.67749023 4.15234375 C-39.69725565 -12.56548588 -19.26614238 -7.59243389 0 0 Z " fill="#0874E9" transform="translate(74.677490234375,72.84765625)"/>
<path d="M0 0 C34.32 0 68.64 0 104 0 C104 2.64 104 5.28 104 8 C69.68 8 35.36 8 0 8 C0 5.36 0 2.72 0 0 Z " fill="#157AEA" transform="translate(24,52)"/>
<path d="M0 0 C0.589021 1.05743408 0.589021 1.05743408 1.18994141 2.13623047 C2.99996267 5.3834182 4.81246577 8.62921435 6.625 11.875 C7.24246094 12.98359375 7.85992188 14.0921875 8.49609375 15.234375 C9.10839844 16.33007812 9.72070312 17.42578125 10.3515625 18.5546875 C11.25890137 20.18422363 11.25890137 20.18422363 12.18457031 21.84667969 C14.35868385 25.62301783 16.7099703 29.26831796 19.14208984 32.88330078 C20 35 20 35 19.25 37.19555664 C17.05170097 40.36892151 14.48764649 41.37644043 11 43 C9.01000977 42.98339844 9.01000977 42.98339844 7 42 C5.12475586 39.39550781 5.12475586 39.39550781 3.21484375 35.953125 C2.87248184 35.34490906 2.53011993 34.73669312 2.17738342 34.11004639 C1.08507565 32.16329881 0.01108087 30.20712613 -1.0625 28.25 C-1.78850305 26.94724135 -2.5157039 25.64514943 -3.24414062 24.34375 C-4.58845897 21.94053748 -5.92404695 19.53325539 -7.25415039 17.12207031 C-8.36364148 15.13798808 -9.5150986 13.17636853 -10.72045898 11.24902344 C-12 9 -12 9 -12.125 6.4375 C-9.81705124 1.43694436 -5.21785382 0 0 0 Z " fill="#0974E9" transform="translate(13,73)"/>
<path d="M0 0 C3.91288936 0.84409679 6.52891077 3.5432161 9.13671875 6.4609375 C10.67269329 9.53288658 10.36322255 12.06338043 10.13671875 15.4609375 C8.87916037 18.90267624 7.75752519 20.91316711 5.01171875 23.3359375 C0.98278193 24.91247799 -2.59392217 25.16604036 -6.86328125 24.4609375 C-10.48771652 22.30169947 -12.24968128 20.29849918 -13.86328125 16.4609375 C-14.38559043 13.38756032 -14.4118166 10.53273549 -13.86328125 7.4609375 C-10.03070161 2.59252553 -6.34889322 -0.11735477 0 0 Z " fill="#1077E9" transform="translate(77.86328125,-0.4609375)"/>
<path d="M0 0 C0.66 1.32 1.32 2.64 2 4 C3.18602415 6.11924298 4.38411408 8.23174981 5.58984375 10.33984375 C5.93503555 10.94381485 6.28022736 11.54778595 6.63587952 12.1700592 C7.36408268 13.44366176 8.09280733 14.71696627 8.82202148 15.98999023 C9.9314104 17.92686819 11.03908259 19.86471974 12.14648438 21.80273438 C15.0653448 26.90590182 15.0653448 26.90590182 18 32 C18.5163501 32.95205322 19.0327002 33.90410645 19.56469727 34.88500977 C20.27517212 35.93192993 20.27517212 35.93192993 21 37 C23.62694422 37.41780879 23.62694422 37.41780879 26 37 C25.67 37.66 25.34 38.32 25 39 C16.75 39 8.5 39 0 39 C0 26.13 0 13.26 0 0 Z " fill="#F9FCFE" transform="translate(0,78)"/>
<path d="M0 0 C2.65381294 1.70780082 4.82790509 3.71930035 7 6 C6 9 6 9 4.31640625 10.171875 C1.42254097 11.20644404 -0.99278737 11.26521543 -4.0625 11.25 C-5.10535156 11.25515625 -6.14820312 11.2603125 -7.22265625 11.265625 C-10 11 -10 11 -13 9 C-13.99 9.66 -14.98 10.32 -16 11 C-15.58534283 6.16233301 -13.5801385 4.14353624 -10 1 C-6.74072704 -0.62963648 -3.50804089 -0.69908894 0 0 Z " fill="#1279EA" transform="translate(80,0)"/>
<path d="M0 0 C0.680625 0.165 1.36125 0.33 2.0625 0.5 C7.21819649 1.37756536 11.91909043 1.12909102 17 0 C20 0 20 0 21.6875 0.5 C26.78083018 1.60126058 31.97368327 1.25657918 37 0 C37.495 2.475 37.495 2.475 38 5 C25.13 5 12.26 5 -1 5 C-0.67 3.35 -0.34 1.7 0 0 Z " fill="#1178EA" transform="translate(29,43)"/>
<path d="M0 0 C0.7734375 0.495 0.7734375 0.495 1.5625 1 C5.80024909 2.73856373 9.64902396 2.45990674 13.9375 1 C14.618125 0.67 15.29875 0.34 16 0 C17 1 17 1 17 6 C4.46 6 -8.08 6 -21 6 C-20.67 4.35 -20.34 2.7 -20 1 C-19.505 1.165 -19.01 1.33 -18.5 1.5 C-13.3020554 2.53958892 -8.12177191 2.28044298 -3 1 C-3 1.66 -3 2.32 -3 3 C-2.34 3 -1.68 3 -1 3 C-0.67 2.01 -0.34 1.02 0 0 Z " fill="#1177EA" transform="translate(106,42)"/>
<path d="M0 0 C2.5 0.5 2.5 0.5 4.875 2.0625 C6.5 4.5 6.5 4.5 6.4375 8.125 C5.5 11.5 5.5 11.5 2.5 13.5 C-1.0625 13.3125 -1.0625 13.3125 -4.5 12.5 C-6.66551116 9.25173326 -7.05156953 8.26905843 -6.5 4.5 C-4.50600369 1.76748653 -3.3376027 0.66752054 0 0 Z " fill="#1178E9" transform="translate(57.5,27.5)"/>
<path d="M0 0 C2.31282587 3.46923881 2.42478586 4.92205575 2 9 C0.875 10.875 0.875 10.875 -1 12 C-4.11811483 12.38976435 -6.11019567 12.50422245 -8.875 10.9375 C-10.64273274 7.8930714 -10.36823916 5.4368988 -10 2 C-7.71139092 -2.30797003 -4.19123206 -1.06685907 0 0 Z " fill="#0E77E9" transform="translate(118,29)"/>
<path d="M0 0 C2 2 2 2 2.3125 5.4375 C2 9 2 9 0.875 10.9375 C-1.88980433 12.50422245 -3.88188517 12.38976435 -7 12 C-8.875 10.9375 -8.875 10.9375 -10 9 C-10.4375 5.5 -10.4375 5.5 -10 2 C-7.00303875 -1.6885677 -4.34072074 -1.22672543 0 0 Z " fill="#0E76E9" transform="translate(42,29)"/>
<path d="M0 0 C2.875 0.875 2.875 0.875 4.875 2.875 C5.42521834 8.92740175 5.42521834 8.92740175 3.75 11.8125 C0.98519567 13.37922245 -1.00688517 13.26476435 -4.125 12.875 C-6 11.75 -6 11.75 -7.125 9.875 C-7.66900387 6.22240261 -7.56274093 4.5316114 -5.5 1.4375 C-3.125 -0.125 -3.125 -0.125 0 0 Z " fill="#0D76E9" transform="translate(95.125,28.125)"/>
<path d="M0 0 C1.875 1.125 1.875 1.125 3 3 C3.38976435 6.11811483 3.50422245 8.11019567 1.9375 10.875 C-1.06732099 12.61973477 -3.60810131 12.30835443 -7 12 C-9.32528287 9.67471713 -9.29511025 9.15334102 -9.3125 6 C-9.32925781 5.29875 -9.34601562 4.5975 -9.36328125 3.875 C-9.24339844 3.25625 -9.12351563 2.6375 -9 2 C-5.53076119 -0.31282587 -4.07794425 -0.42478586 0 0 Z " fill="#0B75E9" transform="translate(51,13)"/>
<path d="M0 0 C1.875 1.125 1.875 1.125 3 3 C3.39365568 6.14924548 3.52854531 8.11909116 1.875 10.875 C-0.88090884 12.52854531 -2.85075452 12.39365568 -6 12 C-7.875 10.875 -7.875 10.875 -9 9 C-9.39365568 5.85075452 -9.52854531 3.88090884 -7.875 1.125 C-5.11909116 -0.52854531 -3.14924548 -0.39365568 0 0 Z " fill="#0873E9" transform="translate(107,13)"/>
<path d="M0 0 C3.96 0 7.92 0 12 0 C12.33 1.32 12.66 2.64 13 4 C8.38 4 3.76 4 -1 4 C-0.67 2.68 -0.34 1.36 0 0 Z " fill="#E0EDFC" transform="translate(70,13)"/>
<path d="M0 0 C3.96 0 7.92 0 12 0 C12 1.32 12 2.64 12 4 C8.04 4 4.08 4 0 4 C0 2.68 0 1.36 0 0 Z " fill="#F6FAFE" transform="translate(70,7)"/>
<path d="M0 0 C0.33 0.99 0.66 1.98 1 3 C-3.58031088 5.99481865 -3.58031088 5.99481865 -6 7 C-8.4375 6.25 -8.4375 6.25 -10 5 C-10 4.01 -10 3.02 -10 2 C-6.5980513 -0.09350689 -3.94727588 -0.17942163 0 0 Z " fill="#1077E9" transform="translate(90,67)"/>
<path d="M0 0 C0 1.32 0 2.64 0 4 C-4.62 4 -9.24 4 -14 4 C-11.58592302 2.39061535 -9.65955563 1.34509262 -7 0.3125 C-5.9790625 -0.09548828 -5.9790625 -0.09548828 -4.9375 -0.51171875 C-3 -1 -3 -1 0 0 Z " fill="#0B74E9" transform="translate(67,44)"/>
<path d="M0 0 C0.639375 0.165 1.27875 0.33 1.9375 0.5 C5.97586652 1.15932515 9.91807258 1.08003779 14 1 C12.6953125 2.4921875 12.6953125 2.4921875 11 4 C7.875 4.125 7.875 4.125 5 4 C4.67 4.33 4.34 4.66 4 5 C2.33382885 5.04063832 0.66611905 5.042721 -1 5 C-0.67 3.35 -0.34 1.7 0 0 Z " fill="#2080EB" transform="translate(29,43)"/>
<path d="M0 0 C0.804375 0.4640625 0.804375 0.4640625 1.625 0.9375 C4.3984957 2.17827439 7.00042837 2.5909675 10 3 C10 3.33 10 3.66 10 4 C5.20862412 5.6290678 1.94367454 6.20577428 -3 5 C-3 4.34 -3 3.68 -3 3 C-2.34 3 -1.68 3 -1 3 C-0.67 2.01 -0.34 1.02 0 0 Z " fill="#1E7FEB" transform="translate(106,42)"/>
<path d="M0 0 C-2 2 -2 2 -3.9453125 2.1953125 C-5.96354167 2.13020833 -7.98177083 2.06510417 -10 2 C-9.67 1.34 -9.34 0.68 -9 0 C-5.44307323 -0.85056945 -3.50729422 -1.16909807 0 0 Z " fill="#0671E9" transform="translate(119,46)"/>
</svg>
