<?xml version="1.0" encoding="UTF-8"?>
<svg version="1.1" xmlns="http://www.w3.org/2000/svg" width="73" height="95">
<path d="M0 0 C24.09 0 48.18 0 73 0 C73 31.35 73 62.7 73 95 C48.91 95 24.82 95 0 95 C0 63.65 0 32.3 0 0 Z " fill="#0E77E9" transform="translate(0,0)"/>
<path d="M0 0 C1.71316406 -0.02513672 1.71316406 -0.02513672 3.4609375 -0.05078125 C6.83626904 0.33675682 8.17835591 1.02856376 10.625 3.3125 C11.1509375 2.82523438 11.676875 2.33796875 12.21875 1.8359375 C15.34093937 -0.1407733 17.45261805 -0.08776868 21.125 -0.0625 C22.2490625 -0.07023437 23.373125 -0.07796875 24.53125 -0.0859375 C27.84165072 0.34040199 29.21045579 1.07549581 31.625 3.3125 C32.14707031 2.82265625 32.66914062 2.3328125 33.20703125 1.828125 C36.39274213 -0.16873416 38.58191819 -0.02105166 42.3125 0.0625 C43.47136719 0.07796875 44.63023438 0.0934375 45.82421875 0.109375 C48.625 0.3125 48.625 0.3125 49.625 1.3125 C49.74987758 3.12177281 49.80070846 4.93646107 49.8125 6.75 C49.82667969 7.73871094 49.84085938 8.72742188 49.85546875 9.74609375 C49.625 12.3125 49.625 12.3125 47.625 14.3125 C45.2421875 14.7265625 45.2421875 14.7265625 42.5 14.9375 C41.58992188 15.01226562 40.67984375 15.08703125 39.7421875 15.1640625 C39.04351562 15.21304688 38.34484375 15.26203125 37.625 15.3125 C39.67207614 17.35957614 43.50672668 17.24045032 46.27734375 17.71484375 C48.625 18.3125 48.625 18.3125 50.625 20.3125 C50.88378906 22.98632813 50.88378906 22.98632813 50.890625 26.34375 C50.89449219 28.14779297 50.89449219 28.14779297 50.8984375 29.98828125 C50.89070313 31.25027344 50.88296875 32.51226562 50.875 33.8125 C50.88660156 35.70548828 50.88660156 35.70548828 50.8984375 37.63671875 C50.89585938 38.83941406 50.89328125 40.04210937 50.890625 41.28125 C50.88836914 42.38919922 50.88611328 43.49714844 50.88378906 44.63867188 C50.625 47.3125 50.625 47.3125 48.625 49.3125 C45.65625 49.578125 45.65625 49.578125 42.125 49.5625 C40.9596875 49.56765625 39.794375 49.5728125 38.59375 49.578125 C35.625 49.3125 35.625 49.3125 33.625 47.3125 C33.39794922 44.79052734 33.39794922 44.79052734 33.4296875 41.6484375 C33.43613281 40.52695313 33.44257812 39.40546875 33.44921875 38.25 C33.46597656 37.074375 33.48273437 35.89875 33.5 34.6875 C33.50902344 33.50414062 33.51804688 32.32078125 33.52734375 31.1015625 C33.55097188 28.17167477 33.58391486 25.2421866 33.625 22.3125 C32.965 22.3125 32.305 22.3125 31.625 22.3125 C31.625 24.6225 31.625 26.9325 31.625 29.3125 C31.00625 29.56 30.3875 29.8075 29.75 30.0625 C27.27431313 31.51878639 26.67374998 32.69062506 25.625 35.3125 C26.615 35.9725 27.605 36.6325 28.625 37.3125 C28.953125 39.87890625 28.953125 39.87890625 28.875 42.875 C28.85953125 43.86628906 28.8440625 44.85757813 28.828125 45.87890625 C28.625 48.3125 28.625 48.3125 27.625 49.3125 C25.52470014 49.464823 23.41812861 49.53439372 21.3125 49.5625 C20.16136719 49.58828125 19.01023437 49.6140625 17.82421875 49.640625 C14.40776202 49.29021918 13.09058962 48.62589273 10.625 46.3125 C10.10164063 46.80105469 9.57828125 47.28960937 9.0390625 47.79296875 C5.87702179 49.78331476 3.70997136 49.67943525 0 49.625 C-1.14726562 49.62113281 -2.29453125 49.61726563 -3.4765625 49.61328125 C-6.375 49.3125 -6.375 49.3125 -8.375 47.3125 C-9.10712816 42.97932284 -8.82941202 39.3039444 -7 35.3125 C-3.09878675 32.34014705 0.83033822 32.4131513 5.625 32.3125 C4.78195313 32.26351562 3.93890625 32.21453125 3.0703125 32.1640625 C1.97460938 32.08929688 0.87890625 32.01453125 -0.25 31.9375 C-1.34054688 31.86789063 -2.43109375 31.79828125 -3.5546875 31.7265625 C-6.375 31.3125 -6.375 31.3125 -8.375 29.3125 C-9.10712816 24.97932284 -8.82941202 21.3039444 -7 17.3125 C-3.09878675 14.34014705 0.83033822 14.4131513 5.625 14.3125 C4.78195313 14.26351562 3.93890625 14.21453125 3.0703125 14.1640625 C1.42675781 14.05191406 1.42675781 14.05191406 -0.25 13.9375 C-1.34054688 13.86789063 -2.43109375 13.79828125 -3.5546875 13.7265625 C-6.375 13.3125 -6.375 13.3125 -8.375 11.3125 C-8.640625 9.21875 -8.640625 9.21875 -8.625 6.8125 C-8.63015625 6.0184375 -8.6353125 5.224375 -8.640625 4.40625 C-7.99948595 -0.64743424 -4.1788093 0.01408587 0 0 Z " fill="#187CEA" transform="translate(14.375,36.6875)"/>
<path d="M0 0 C1.07451416 -0.00630432 2.14902832 -0.01260864 3.25610352 -0.019104 C5.00298462 -0.01303131 5.00298462 -0.01303131 6.78515625 -0.00683594 C7.97616943 -0.00874939 9.16718262 -0.01066284 10.39428711 -0.01263428 C12.91618053 -0.01399724 15.43808094 -0.0102931 17.95996094 -0.00195312 C21.83153974 0.00874453 25.70265447 -0.00184499 29.57421875 -0.01464844 C32.01953228 -0.01332686 34.46484552 -0.01076451 36.91015625 -0.00683594 C38.07474365 -0.0108844 39.23933105 -0.01493286 40.43920898 -0.019104 C42.05098022 -0.00964752 42.05098022 -0.00964752 43.6953125 0 C45.11855835 0.00238678 45.11855835 0.00238678 46.57055664 0.00482178 C48.84765625 0.25878906 48.84765625 0.25878906 50.84765625 2.25878906 C51.09057617 4.12231445 51.09057617 4.12231445 51.078125 6.35644531 C51.07619141 7.15759766 51.07425781 7.95875 51.07226562 8.78417969 C51.05389648 10.04004883 51.05389648 10.04004883 51.03515625 11.32128906 C51.03451172 12.16240234 51.03386719 13.00351562 51.03320312 13.87011719 C50.98788809 20.11855722 50.98788809 20.11855722 49.84765625 21.25878906 C48.1038309 21.35766698 46.35600082 21.38677938 44.609375 21.38818359 C43.49151611 21.39133575 42.37365723 21.39448792 41.22192383 21.3977356 C40.00529053 21.39571136 38.78865723 21.39368713 37.53515625 21.39160156 C36.29596436 21.39255829 35.05677246 21.39351501 33.7800293 21.39450073 C31.15377344 21.3951828 28.52760992 21.39382444 25.90136719 21.38916016 C22.52836911 21.38346287 19.1554506 21.38674208 15.78245544 21.39273262 C12.57501948 21.39720676 9.36759325 21.39407788 6.16015625 21.39160156 C4.94352295 21.39362579 3.72688965 21.39565002 2.47338867 21.3977356 C0.79660034 21.39300735 0.79660034 21.39300735 -0.9140625 21.38818359 C-1.90365967 21.387388 -2.89325684 21.38659241 -3.9128418 21.38577271 C-6.15234375 21.25878906 -6.15234375 21.25878906 -7.15234375 20.25878906 C-7.27902139 17.26860745 -7.33755213 14.31184798 -7.33984375 11.32128906 C-7.35208984 10.48404297 -7.36433594 9.64679687 -7.37695312 8.78417969 C-7.37888672 7.98302734 -7.38082031 7.181875 -7.3828125 6.35644531 C-7.38692139 5.61918213 -7.39103027 4.88191895 -7.39526367 4.12231445 C-6.81645961 -0.31789804 -3.69178512 0.00619111 0 0 Z " fill="#F7FAFE" transform="translate(14.15234375,7.7412109375)"/>
<path d="M0 0 C1.1653125 0.00515625 2.330625 0.0103125 3.53125 0.015625 C4.6965625 0.01046875 5.861875 0.0053125 7.0625 0 C10.03125 0.265625 10.03125 0.265625 12.03125 2.265625 C12.29003906 4.93945312 12.29003906 4.93945312 12.296875 8.296875 C12.30074219 10.10091797 12.30074219 10.10091797 12.3046875 11.94140625 C12.29695313 13.20339844 12.28921875 14.46539062 12.28125 15.765625 C12.28898437 17.02761719 12.29671875 18.28960937 12.3046875 19.58984375 C12.30210938 20.79253906 12.29953125 21.99523437 12.296875 23.234375 C12.29461914 24.34232422 12.29236328 25.45027344 12.29003906 26.59179688 C12.03125 29.265625 12.03125 29.265625 10.03125 31.265625 C7.0625 31.53125 7.0625 31.53125 3.53125 31.515625 C2.3659375 31.52078125 1.200625 31.5259375 0 31.53125 C-2.96875 31.265625 -2.96875 31.265625 -4.96875 29.265625 C-5.22753906 26.59179688 -5.22753906 26.59179688 -5.234375 23.234375 C-5.23695312 22.03167969 -5.23953125 20.82898438 -5.2421875 19.58984375 C-5.23445313 18.32785156 -5.22671875 17.06585938 -5.21875 15.765625 C-5.22648437 14.50363281 -5.23421875 13.24164063 -5.2421875 11.94140625 C-5.23960938 10.73871094 -5.23703125 9.53601563 -5.234375 8.296875 C-5.23211914 7.18892578 -5.22986328 6.08097656 -5.22753906 4.93945312 C-4.84863896 1.02462872 -3.87554306 0.34675912 0 0 Z " fill="#F4F9FE" transform="translate(52.96875,54.734375)"/>
<path d="M0 0 C1.98 0 3.96 0 6 0 C6 31.35 6 62.7 6 95 C-18.09 95 -42.18 95 -67 95 C-67 92.69 -67 90.38 -67 88 C-66.20100281 88.97398743 -66.20100281 88.97398743 -65.38586426 89.96765137 C-62.34287458 92.55975856 -60.78448623 92.50610812 -56.82617188 92.51757812 C-55.57807739 92.53018677 -54.32998291 92.54279541 -53.04406738 92.55578613 C-51.6856225 92.54862628 -50.32718278 92.54042229 -48.96875 92.53125 C-47.57157115 92.53394569 -46.17439412 92.53782876 -44.77722168 92.54284668 C-41.85178736 92.54873826 -38.92684221 92.54019063 -36.00146484 92.52148438 C-32.25518609 92.49869394 -28.51005355 92.511819 -24.76381683 92.53577423 C-21.87953078 92.55024205 -18.99551562 92.54562195 -16.11122131 92.53526306 C-14.73014693 92.53259844 -13.34904779 92.5358563 -11.96800232 92.54518127 C-10.03661583 92.55536088 -8.10514289 92.53708887 -6.17382812 92.51757812 C-5.07558716 92.51439575 -3.97734619 92.51121338 -2.8458252 92.50793457 C0.05595903 92.17997662 0.05595903 92.17997662 2.35351562 90.47399902 C4.64705217 87.02774271 4.55995477 83.90113288 4.51757812 79.8984375 C4.5245874 79.08497864 4.53159668 78.27151978 4.53881836 77.43341064 C4.55641059 74.74692558 4.54477163 72.0614956 4.53125 69.375 C4.53394457 67.50699664 4.5378267 65.63899465 4.54284668 63.77099609 C4.54874338 59.85696045 4.54017328 55.94329005 4.52148438 52.02929688 C4.49869468 47.01190111 4.51181685 41.99536119 4.53577423 36.97799683 C4.55022759 33.12094676 4.54562835 29.26409963 4.53526306 25.40704346 C4.53259449 23.55706684 4.5358701 21.70707181 4.54518127 19.8571167 C4.55533937 17.27143543 4.5398571 14.68714049 4.51757812 12.1015625 C4.52567505 11.33676575 4.53377197 10.57196899 4.54211426 9.78399658 C4.48433445 6.16481408 4.28315595 4.34919563 1.96765137 1.49365234 C1.31832642 1.00074707 0.66900146 0.5078418 0 0 Z " fill="#FCFDFE" transform="translate(67,0)"/>
<path d="M0 0 C1.17433594 0.01417969 2.34867188 0.02835937 3.55859375 0.04296875 C5.32396484 0.05263672 5.32396484 0.05263672 7.125 0.0625 C9.99609375 0.23046875 9.99609375 0.23046875 10.99609375 1.23046875 C11.09460546 3.06162758 11.12582004 4.89666808 11.12109375 6.73046875 C11.12496094 8.2309375 11.12496094 8.2309375 11.12890625 9.76171875 C10.99609375 12.23046875 10.99609375 12.23046875 9.99609375 13.23046875 C7.85301479 13.35584616 5.70530489 13.40621239 3.55859375 13.41796875 C2.38425781 13.43214844 1.20992187 13.44632813 0 13.4609375 C-3.00390625 13.23046875 -3.00390625 13.23046875 -5.00390625 11.23046875 C-5.26953125 9.13671875 -5.26953125 9.13671875 -5.25390625 6.73046875 C-5.2590625 5.93640625 -5.26421875 5.14234375 -5.26953125 4.32421875 C-4.81280898 0.72417263 -3.46565053 0.26589516 0 0 Z " fill="#FAFCFE" transform="translate(32.00390625,72.76953125)"/>
<path d="M0 0 C1.17433594 0.01417969 2.34867188 0.02835937 3.55859375 0.04296875 C5.32396484 0.05263672 5.32396484 0.05263672 7.125 0.0625 C9.99609375 0.23046875 9.99609375 0.23046875 10.99609375 1.23046875 C11.09460546 3.06162758 11.12582004 4.89666808 11.12109375 6.73046875 C11.12496094 8.2309375 11.12496094 8.2309375 11.12890625 9.76171875 C10.99609375 12.23046875 10.99609375 12.23046875 9.99609375 13.23046875 C7.85301479 13.35584616 5.70530489 13.40621239 3.55859375 13.41796875 C2.38425781 13.43214844 1.20992187 13.44632813 0 13.4609375 C-3.00390625 13.23046875 -3.00390625 13.23046875 -5.00390625 11.23046875 C-5.26953125 9.13671875 -5.26953125 9.13671875 -5.25390625 6.73046875 C-5.2590625 5.93640625 -5.26421875 5.14234375 -5.26953125 4.32421875 C-4.81280898 0.72417263 -3.46565053 0.26589516 0 0 Z " fill="#FAFCFE" transform="translate(11.00390625,72.76953125)"/>
<path d="M0 0 C1.17433594 0.01417969 2.34867188 0.02835938 3.55859375 0.04296875 C5.32396484 0.05263672 5.32396484 0.05263672 7.125 0.0625 C9.99609375 0.23046875 9.99609375 0.23046875 10.99609375 1.23046875 C11.09460546 3.06162758 11.12582004 4.89666808 11.12109375 6.73046875 C11.12496094 8.2309375 11.12496094 8.2309375 11.12890625 9.76171875 C10.99609375 12.23046875 10.99609375 12.23046875 9.99609375 13.23046875 C7.85301479 13.35584616 5.70530489 13.40621239 3.55859375 13.41796875 C2.38425781 13.43214844 1.20992187 13.44632813 0 13.4609375 C-3.00390625 13.23046875 -3.00390625 13.23046875 -5.00390625 11.23046875 C-5.26953125 9.13671875 -5.26953125 9.13671875 -5.25390625 6.73046875 C-5.2590625 5.93640625 -5.26421875 5.14234375 -5.26953125 4.32421875 C-4.81280898 0.72417263 -3.46565053 0.26589516 0 0 Z " fill="#FAFCFE" transform="translate(32.00390625,54.76953125)"/>
<path d="M0 0 C1.17433594 0.01417969 2.34867188 0.02835938 3.55859375 0.04296875 C5.32396484 0.05263672 5.32396484 0.05263672 7.125 0.0625 C9.99609375 0.23046875 9.99609375 0.23046875 10.99609375 1.23046875 C11.09460546 3.06162758 11.12582004 4.89666808 11.12109375 6.73046875 C11.12496094 8.2309375 11.12496094 8.2309375 11.12890625 9.76171875 C10.99609375 12.23046875 10.99609375 12.23046875 9.99609375 13.23046875 C7.85301479 13.35584616 5.70530489 13.40621239 3.55859375 13.41796875 C2.38425781 13.43214844 1.20992187 13.44632813 0 13.4609375 C-3.00390625 13.23046875 -3.00390625 13.23046875 -5.00390625 11.23046875 C-5.26953125 9.13671875 -5.26953125 9.13671875 -5.25390625 6.73046875 C-5.2590625 5.93640625 -5.26421875 5.14234375 -5.26953125 4.32421875 C-4.81280898 0.72417263 -3.46565053 0.26589516 0 0 Z " fill="#FAFCFE" transform="translate(11.00390625,54.76953125)"/>
<path d="M0 0 C1.17433594 0.01417969 2.34867188 0.02835938 3.55859375 0.04296875 C5.32396484 0.05263672 5.32396484 0.05263672 7.125 0.0625 C9.99609375 0.23046875 9.99609375 0.23046875 10.99609375 1.23046875 C11.09460546 3.06162758 11.12582004 4.89666808 11.12109375 6.73046875 C11.12496094 8.2309375 11.12496094 8.2309375 11.12890625 9.76171875 C10.99609375 12.23046875 10.99609375 12.23046875 9.99609375 13.23046875 C7.85301479 13.35584616 5.70530489 13.40621239 3.55859375 13.41796875 C2.38425781 13.43214844 1.20992187 13.44632813 0 13.4609375 C-3.00390625 13.23046875 -3.00390625 13.23046875 -5.00390625 11.23046875 C-5.26953125 9.13671875 -5.26953125 9.13671875 -5.25390625 6.73046875 C-5.2590625 5.93640625 -5.26421875 5.14234375 -5.26953125 4.32421875 C-4.81280898 0.72417263 -3.46565053 0.26589516 0 0 Z " fill="#FAFCFE" transform="translate(53.00390625,36.76953125)"/>
<path d="M0 0 C1.17433594 0.01417969 2.34867188 0.02835938 3.55859375 0.04296875 C5.32396484 0.05263672 5.32396484 0.05263672 7.125 0.0625 C9.99609375 0.23046875 9.99609375 0.23046875 10.99609375 1.23046875 C11.09460546 3.06162758 11.12582004 4.89666808 11.12109375 6.73046875 C11.12496094 8.2309375 11.12496094 8.2309375 11.12890625 9.76171875 C10.99609375 12.23046875 10.99609375 12.23046875 9.99609375 13.23046875 C7.85301479 13.35584616 5.70530489 13.40621239 3.55859375 13.41796875 C2.38425781 13.43214844 1.20992187 13.44632813 0 13.4609375 C-3.00390625 13.23046875 -3.00390625 13.23046875 -5.00390625 11.23046875 C-5.26953125 9.13671875 -5.26953125 9.13671875 -5.25390625 6.73046875 C-5.2590625 5.93640625 -5.26421875 5.14234375 -5.26953125 4.32421875 C-4.81280898 0.72417263 -3.46565053 0.26589516 0 0 Z " fill="#FAFCFE" transform="translate(32.00390625,36.76953125)"/>
<path d="M0 0 C1.17433594 0.01417969 2.34867188 0.02835938 3.55859375 0.04296875 C5.32396484 0.05263672 5.32396484 0.05263672 7.125 0.0625 C9.99609375 0.23046875 9.99609375 0.23046875 10.99609375 1.23046875 C11.09460546 3.06162758 11.12582004 4.89666808 11.12109375 6.73046875 C11.12496094 8.2309375 11.12496094 8.2309375 11.12890625 9.76171875 C10.99609375 12.23046875 10.99609375 12.23046875 9.99609375 13.23046875 C7.85301479 13.35584616 5.70530489 13.40621239 3.55859375 13.41796875 C2.38425781 13.43214844 1.20992187 13.44632813 0 13.4609375 C-3.00390625 13.23046875 -3.00390625 13.23046875 -5.00390625 11.23046875 C-5.26953125 9.13671875 -5.26953125 9.13671875 -5.25390625 6.73046875 C-5.2590625 5.93640625 -5.26421875 5.14234375 -5.26953125 4.32421875 C-4.81280898 0.72417263 -3.46565053 0.26589516 0 0 Z " fill="#FAFCFE" transform="translate(11.00390625,36.76953125)"/>
<path d="M0 0 C1.65 0.33 3.3 0.66 5 1 C5.22786458 3.05078125 5.45572917 5.1015625 5.68359375 7.15234375 C5.81886614 9.01140229 5.81886614 9.01140229 7 10 C9.01594582 10.23427778 11.038474 10.41336124 13.0625 10.5625 C14.16722656 10.64628906 15.27195312 10.73007812 16.41015625 10.81640625 C17.69212891 10.90728516 17.69212891 10.90728516 19 11 C19 11.33 19 11.66 19 12 C15.7 12.33 12.4 12.66 9 13 C10.49743119 14.49743119 11.98824239 14.33202693 14.0625 14.5625 C15.361875 14.706875 16.66125 14.85125 18 15 C18 15.33 18 15.66 18 16 C16.84371094 16.05607422 16.84371094 16.05607422 15.6640625 16.11328125 C14.15972656 16.21189453 14.15972656 16.21189453 12.625 16.3125 C11.62726562 16.37050781 10.62953125 16.42851563 9.6015625 16.48828125 C8.74304688 16.65714844 7.88453125 16.82601562 7 17 C6.34 17.99 5.68 18.98 5 20 C4.34 20 3.68 20 3 20 C3 22.31 3 24.62 3 27 C2.01 27 1.02 27 0 27 C-0.33 23.7 -0.66 20.4 -1 17 C-4.96 16.67 -8.92 16.34 -13 16 C-13 15.67 -13 15.34 -13 15 C-12.38511719 14.97421875 -11.77023438 14.9484375 -11.13671875 14.921875 C-10.32847656 14.86515625 -9.52023438 14.8084375 -8.6875 14.75 C-7.88699219 14.70359375 -7.08648437 14.6571875 -6.26171875 14.609375 C-3.88379068 14.16719941 -3.88379068 14.16719941 -2.25 12.28125 C-0.80857359 9.6506468 -0.50864645 7.73142604 -0.3125 4.75 C-0.24675781 3.85796875 -0.18101563 2.9659375 -0.11328125 2.046875 C-0.07589844 1.37140625 -0.03851563 0.6959375 0 0 Z " fill="#2081EB" transform="translate(43,39)"/>
<path d="M0 0 C0.99 0.66 1.98 1.32 3 2 C3.38818359 4.30664063 3.38818359 4.30664063 3.3984375 7.15625 C3.40423828 8.68958984 3.40423828 8.68958984 3.41015625 10.25390625 C3.39855469 11.32511719 3.38695313 12.39632812 3.375 13.5 C3.38660156 14.57121094 3.39820312 15.64242187 3.41015625 16.74609375 C3.40628906 17.76832031 3.40242188 18.79054688 3.3984375 19.84375 C3.39505371 20.78412109 3.39166992 21.72449219 3.38818359 22.69335938 C3.26008301 23.45455078 3.13198242 24.21574219 3 25 C2.01 25.66 1.02 26.32 0 27 C-0.03738281 26.37351562 -0.07476562 25.74703125 -0.11328125 25.1015625 C-0.17902344 24.28429687 -0.24476562 23.46703125 -0.3125 22.625 C-0.37050781 21.81289062 -0.42851563 21.00078125 -0.48828125 20.1640625 C-0.82990528 17.62078662 -0.82990528 17.62078662 -4 16 C-5.98528892 15.65795833 -5.98528892 15.65795833 -8.0625 15.5625 C-9.361875 15.376875 -10.66125 15.19125 -12 15 C-12.66 14.01 -13.32 13.02 -14 12 C-12.84371094 11.92652344 -12.84371094 11.92652344 -11.6640625 11.8515625 C-10.66117188 11.77679688 -9.65828125 11.70203125 -8.625 11.625 C-7.62726562 11.55539063 -6.62953125 11.48578125 -5.6015625 11.4140625 C-2.84491121 11.23636036 -2.84491121 11.23636036 -1 9 C-0.53993654 6.79749008 -0.53993654 6.79749008 -0.375 4.375 C-0.30023438 3.55773438 -0.22546875 2.74046875 -0.1484375 1.8984375 C-0.09945312 1.27195313 -0.05046875 0.64546875 0 0 Z " fill="#026EE8" transform="translate(44,57)"/>
<path d="M0 0 C0.5332489 0.64874084 1.0664978 1.29748169 1.61590576 1.96588135 C4.64647956 4.55157892 6.20085595 4.5138281 10.14550781 4.54589844 C12.00698456 4.57547638 12.00698456 4.57547638 13.90606689 4.60565186 C15.25508581 4.60731488 16.60410532 4.60854582 17.953125 4.609375 C19.33748305 4.62435961 20.72182324 4.64108737 22.10614014 4.65948486 C25.74260283 4.70314018 29.37882439 4.72315303 33.01550293 4.73822021 C36.72923022 4.75779818 40.44269735 4.79976729 44.15625 4.83984375 C51.43743003 4.91512587 58.71850079 4.96542897 66 5 C66 5.33 66 5.66 66 6 C44.22 6.33 22.44 6.66 0 7 C0 4.69 0 2.38 0 0 Z " fill="#F0F6FE" transform="translate(0,88)"/>
</svg>
