<?xml version="1.0" encoding="UTF-8"?>
<svg version="1.1" xmlns="http://www.w3.org/2000/svg" width="105" height="105">
<path d="M0 0 C34.65 0 69.3 0 105 0 C105 34.65 105 69.3 105 105 C70.35 105 35.7 105 0 105 C0 70.35 0 35.7 0 0 Z " fill="#0773E9" transform="translate(0,0)"/>
<path d="M0 0 C0.33 0 0.66 0 1 0 C1 16.5 1 33 1 50 C-15.5 50 -32 50 -49 50 C-43.89894227 45.91915382 -43.44153263 45.56944104 -37.5 45.5625 C-32.30812527 45.39568069 -32.30812527 45.39568069 -28 42.625 C-27.34 41.75875 -26.68 40.8925 -26 40 C-23.32330003 38.21553335 -20.98374777 36.99436147 -17.9375 35.9375 C-14.01981451 33.35349468 -13.56379619 30.69679527 -12.07421875 26.37890625 C-10.45431854 22.79156361 -8.40902823 21.81814839 -5 20 C-3.2133635 16.42672701 -3.64747573 12.20621618 -3.4765625 8.26171875 C-2.97018331 4.79592673 -2.05466044 2.80803593 0 0 Z " fill="#FAFCFE" transform="translate(104,55)"/>
<path d="M0 0 C4.08084618 5.10105773 4.43055896 5.55846737 4.4375 11.5 C4.61698677 16.70963842 4.61698677 16.70963842 7.375 21.0625 C8.24125 21.701875 9.1075 22.34125 10 23 C13.35321416 26.6016004 13.97870118 30.28631313 15 35 C15.87011719 35.09474609 15.87011719 35.09474609 16.7578125 35.19140625 C22.60582345 36.10817364 25.31415539 37.65273147 28.80859375 42.44140625 C29.93388016 44.14985779 29.93388016 44.14985779 32 45 C35.24530365 45.19923419 38.4886962 45.31832633 41.73828125 45.42578125 C45 46 45 46 50 50 C33.5 50 17 50 0 50 C0 33.5 0 17 0 0 Z " fill="#FAFCFE" transform="translate(0,55)"/>
<path d="M0 0 C16.17 0 32.34 0 49 0 C43.46183328 4.43053338 43.46183328 4.43053338 38 4.4375 C33.08602686 4.65125168 33.08602686 4.65125168 29 7.375 C28.34 8.24125 27.68 9.1075 27 10 C24.2922998 12.52096225 22.50178803 13.08119103 18.9375 13.5625 C16.79749367 13.91532208 16.79749367 13.91532208 15 15 C13.89181155 17.47450915 13.36147584 19.87415951 12.78125 22.51953125 C11.55187298 26.42280327 9.29437642 27.70825988 6 30 C4.30864753 33.38270494 4.65296598 37.22006273 4.4765625 40.95703125 C3.95457542 44.2900471 2.96134325 46.27926488 1 49 C0.67 49 0.34 49 0 49 C0 32.83 0 16.66 0 0 Z " fill="#FAFCFE" transform="translate(0,0)"/>
<path d="M0 0 C16.5 0 33 0 50 0 C50 16.17 50 32.34 50 49 C46.0330613 45.0330613 45.93718236 43.60910321 45.75 38.1875 C45.38782782 33.17392139 45.38782782 33.17392139 42.625 29 C41.75875 28.34 40.8925 27.68 40 27 C37.60780538 24.34200598 37.02790631 23.1918559 36.5 19.5625 C34.69773048 15.28210989 33.82449045 15.15432335 29.6875 13.4375 C28.70265625 13.04949219 27.7178125 12.66148438 26.703125 12.26171875 C22.9159505 10.4940058 21.37664803 8.37330688 19 5 C16.41139797 3.70569899 14.63442511 4.00678586 11.75 4.125 C7.05952335 4.1866357 4.02235899 3.60909773 0 1 C0 0.67 0 0.34 0 0 Z " fill="#FBFCFE" transform="translate(55,0)"/>
<path d="M0 0 C3.98261611 2.06692735 6.45113431 4.09882503 8.1015625 8.2734375 C8.74631877 13.24727158 8.01970352 16.6139717 5.36328125 20.76171875 C2.39236838 24.32129547 -0.94876773 25.15472878 -5.3984375 25.7109375 C-9.6634975 25.177805 -11.65437588 24.07512708 -14.8984375 21.2734375 C-17.8088095 16.9078795 -18.5490624 13.47843671 -17.8984375 8.2734375 C-14.12409689 1.00433706 -8.32218907 -3.18503532 0 0 Z " fill="#F0F6FD" transform="translate(41.8984375,24.7265625)"/>
<path d="M0 0 C5.15055847 1.78288562 7.56506082 4.13012164 10 9 C10.6197472 13.33823043 10.3342226 15.37930088 8.25 19.25 C5.54811571 22.55230302 3.66835961 24.70163464 -0.62109375 25.46875 C-8.2468119 25.55336268 -8.2468119 25.55336268 -12.0625 22.75 C-12.701875 21.8425 -13.34125 20.935 -14 20 C-14.433125 19.401875 -14.86625 18.80375 -15.3125 18.1875 C-16.39429894 14.74541245 -16.67764564 11.52375735 -16 8 C-12.25999444 1.44060564 -7.3634861 -0.88026494 0 0 Z " fill="#F2F7FD" transform="translate(71,55)"/>
<path d="M0 0 C0.56543518 0.24622101 1.13087036 0.49244202 1.71343994 0.74612427 C2.07300889 3.96007524 1.99756718 5.35178108 0.07667542 8.01780701 C-0.68989883 8.78835922 -1.45647308 9.55891144 -2.24627686 10.35281372 C-3.5434388 11.67361687 -3.5434388 11.67361687 -4.86680603 13.02110291 C-5.82249664 13.96784384 -6.77883702 14.91392925 -7.73577881 15.85940552 C-8.71102454 16.83802028 -9.6855271 17.81737617 -10.65931702 18.79743958 C-12.70175557 20.84724529 -14.7529528 22.88774614 -16.81072998 24.92214966 C-19.44634206 27.52927413 -22.05886805 30.15820492 -24.66524029 32.79452229 C-26.67311926 34.8204784 -28.69276742 36.83436243 -30.71616554 38.84480858 C-31.68427358 39.80958376 -32.64868814 40.77808001 -33.60928917 41.75032997 C-34.95404022 43.10779315 -36.31660299 44.44754114 -37.67987061 45.78640747 C-38.83569893 46.93626884 -38.83569893 46.93626884 -40.01487732 48.10935974 C-42.68090324 50.0302515 -44.07260909 50.10569322 -47.28656006 49.74612427 C-47.66181408 46.49069424 -47.56118976 45.12445412 -45.60510254 42.42974854 C-44.81774719 41.63841522 -44.03039185 40.84708191 -43.21917725 40.0317688 C-41.88714264 38.67609299 -41.88714264 38.67609299 -40.52819824 37.29302979 C-39.54724494 36.32102476 -38.56564127 35.34967571 -37.58343506 34.37893677 C-36.58337319 33.37550647 -35.58405452 32.37133496 -34.58544922 31.36645508 C-32.49173823 29.26537752 -30.38926228 27.17359781 -28.2802124 25.08792114 C-25.57498735 22.4112204 -22.89287937 19.71264719 -20.21689987 17.00674629 C-18.15843525 14.93023437 -16.08823518 12.86575423 -14.01425934 10.80474472 C-13.02020185 9.81402644 -12.02985573 8.81957003 -11.04329681 7.82138443 C-9.66479168 6.43021209 -8.26854403 5.05668807 -6.871521 3.68411255 C-6.08098328 2.8975528 -5.29044556 2.11099304 -4.47595215 1.30059814 C-2.28656006 -0.25387573 -2.28656006 -0.25387573 0 0 Z " fill="#FBFCFE" transform="translate(75.28656005859375,27.253875732421875)"/>
<path d="M0 0 C1.9375 1.0625 1.9375 1.0625 3 3 C2.66666667 9.33333333 2.66666667 9.33333333 0 12 C-3.10347254 12.33015665 -5.15781176 12.50531294 -7.875 10.875 C-9.52854531 8.11909116 -9.39365568 6.14924548 -9 3 C-6.79086995 -0.68188342 -4.01844539 -0.50230567 0 0 Z " fill="#0A75E9" transform="translate(71,62)"/>
<path d="M0 0 C1.875 1.125 1.875 1.125 3 3 C3.39365568 6.14924548 3.52854531 8.11909116 1.875 10.875 C-0.91106042 12.54663625 -2.81988862 12.46376624 -6 12 C-8.35210784 9.88310295 -8.91810953 8.55958485 -9.375 5.4375 C-9 3 -9 3 -7.875 1.1875 C-5.12844028 -0.55198782 -3.18153026 -0.39769128 0 0 Z " fill="#0B75E9" transform="translate(40,31)"/>
</svg>
