<?xml version="1.0" encoding="UTF-8"?>
<svg version="1.1" xmlns="http://www.w3.org/2000/svg" width="103" height="114">
<path d="M0 0 C33.99 0 67.98 0 103 0 C103 37.62 103 75.24 103 114 C69.01 114 35.02 114 0 114 C0 76.38 0 38.76 0 0 Z " fill="#F1F1F0" transform="translate(0,0)"/>
<path d="M0 0 C25.74 0 51.48 0 78 0 C78 17.16 78 34.32 78 52 C72.06 52 66.12 52 60 52 C59.01 52.495 59.01 52.495 58 53 C56.3972902 53.11856636 54.78994647 53.17706124 53.18310547 53.20532227 C51.68177567 53.2352401 51.68177567 53.2352401 50.15011597 53.26576233 C48.52506638 53.29083107 48.52506638 53.29083107 46.8671875 53.31640625 C45.76021515 53.33718735 44.6532428 53.35796844 43.51272583 53.37937927 C39.96688201 53.44490991 36.42096246 53.50377614 32.875 53.5625 C30.4752525 53.60568187 28.07551273 53.64929605 25.67578125 53.69335938 C19.78393487 53.80059488 13.89201269 53.90235472 8 54 C8 54.33 8 54.66 8 55 C22.19 55.33 36.38 55.66 51 56 C47 61 47 61 45.00042725 61.60127258 C44.29871399 61.59016953 43.59700073 61.57906647 42.87402344 61.56762695 C42.07349548 61.5672493 41.27296753 61.56687164 40.44818115 61.56648254 C39.59387512 61.54067612 38.73956909 61.51486969 37.859375 61.48828125 C36.97719299 61.48120651 36.09501099 61.47413177 35.18609619 61.46684265 C32.37319519 61.43889178 29.56229748 61.37615381 26.75 61.3125 C24.84117462 61.28741794 22.93231798 61.26460461 21.0234375 61.24414062 C16.34818848 61.18906299 11.67443367 61.10278694 7 61 C7.33 61.66 7.66 62.32 8 63 C19.88 63.33 31.76 63.66 44 64 C43.67 65.65 43.34 67.3 43 69 C31.12 69 19.24 69 7 69 C7 69.66 7 70.32 7 71 C18.22 71 29.44 71 41 71 C41 72.98 41 74.96 41 77 C29.78 77 18.56 77 7 77 C7 77.66 7 78.32 7 79 C18.22 79 29.44 79 41 79 C41 80.65 41 82.3 41 84 C24.665 84.495 24.665 84.495 8 85 C7.505 85.99 7.505 85.99 7 87 C18.55 87 30.1 87 42 87 C42.66 88.65 43.32 90.3 44 92 C31.79 92 19.58 92 7 92 C7.33 92.66 7.66 93.32 8 94 C9.16047852 93.99887207 10.32095703 93.99774414 11.51660156 93.99658203 C15.82585443 94.00025549 20.13398713 94.04306543 24.44287109 94.09765625 C26.3070555 94.11581494 28.17137455 94.12338497 30.03564453 94.12011719 C32.71753057 94.11725956 35.39662558 94.15257506 38.078125 94.1953125 C39.32677338 94.1816716 39.32677338 94.1816716 40.60064697 94.16775513 C41.77140778 94.19710648 41.77140778 94.19710648 42.96582031 94.22705078 C43.99174286 94.23371262 43.99174286 94.23371262 45.03839111 94.24050903 C47 95 47 95 51 101 C34.17 101 17.34 101 0 101 C0 67.67 0 34.34 0 0 Z " fill="#2080EA" transform="translate(4,4)"/>
<path d="M0 0 C7.07220852 4.07083222 12.3149502 10.11865362 14.625 18 C15.70271747 26.08288103 13.84314328 32.3072608 9.26953125 38.9765625 C5.13690678 44.18389092 0.24634606 47.67573079 -6.375 49 C-14.48004499 49.90631493 -20.65933908 48.72498801 -27.375 44 C-33.08570576 38.95608098 -36.58968275 33.40887259 -37.6875 25.84765625 C-38.07880846 18.88970263 -36.02669164 12.51768713 -31.83203125 6.953125 C-23.25719917 -2.22999036 -11.84629219 -5.32721981 0 0 Z " fill="#0C75E8" transform="translate(84.375,59)"/>
<path d="M0 0 C27.39 0 54.78 0 83 0 C83 26.625 83 26.625 82.9375 35.00244141 C82.95518758 37.20217598 82.97582224 39.40188969 83 41.6015625 C82.97099609 43.30445435 82.97099609 43.30445435 82.94140625 45.04174805 C82.92394074 50.9898632 82.92394074 50.9898632 85.73120117 55.98431396 C87.80035104 57.58796427 87.80035104 57.58796427 89.96166992 58.79989624 C95.61870919 62.13058059 98.7899945 67.49904663 100.5234375 73.69140625 C102.32303909 82.40914839 100.28402098 89.23250742 96 97 C91.55169642 103.02464417 85.72342871 107.04831659 78.36328125 108.53125 C73.91016015 109.07779764 70.58695614 109.15135016 66.18530273 108.01635742 C59.84279402 106.57535183 53.50852859 106.66425116 47.03125 106.62109375 C45.02014792 106.59513586 43.00904589 106.56917316 40.99794769 106.5429163 C38.20754143 106.50873114 35.41708306 106.48301017 32.62658691 106.45739746 C27.70860455 106.41138224 22.79073216 106.35655903 17.8729248 106.29469299 C15.25880777 106.26266513 12.64462167 106.2357974 10.03039551 106.21446228 C8.85827515 106.20097244 7.68615479 106.1874826 6.47851562 106.17358398 C5.44198853 106.16407211 4.40546143 106.15456024 3.33752441 106.14476013 C1 106 1 106 0 105 C-0.09535213 103.63391674 -0.1218867 102.26294545 -0.12025452 100.89353943 C-0.12162918 100.00867859 -0.12300385 99.12381775 -0.12442017 98.21214294 C-0.12082489 97.23391068 -0.11722961 96.25567841 -0.11352539 95.24780273 C-0.11367142 94.2235318 -0.11381744 93.19926086 -0.1139679 92.14395142 C-0.11326828 88.74047771 -0.10547363 85.33705796 -0.09765625 81.93359375 C-0.09579224 79.58089732 -0.09436826 77.2282005 -0.09336853 74.87550354 C-0.08954199 68.66943295 -0.07971055 62.4633856 -0.06866455 56.25732422 C-0.05665946 48.81844818 -0.05204884 41.3795644 -0.04621124 33.94068146 C-0.03649887 22.62710479 -0.01734325 11.31357915 0 0 Z M3 2 C3 35.33 3 68.66 3 103 C19.83 103 36.66 103 54 103 C50.92630771 97.14223592 50.92630771 97.14223592 48.03839111 96.24050903 C47.01246857 96.2338472 47.01246857 96.2338472 45.96582031 96.22705078 C44.79505951 96.19769943 44.79505951 96.19769943 43.60064697 96.16775513 C42.76821472 96.17684906 41.93578247 96.18594299 41.078125 96.1953125 C40.21813904 96.18160614 39.35815308 96.16789978 38.47210693 96.15377808 C35.73087391 96.11644829 32.99145132 96.12019465 30.25 96.125 C28.38929456 96.10687519 26.52861314 96.08607318 24.66796875 96.0625 C20.11167539 96.01062146 15.55657253 95.99557123 11 96 C10.67 95.34 10.34 94.68 10 94 C22.21 94 34.42 94 47 94 C46.34 92.35 45.68 90.7 45 89 C33.45 89 21.9 89 10 89 C10.495 88.01 10.495 88.01 11 87 C21.89 86.67 32.78 86.34 44 86 C44 84.35 44 82.7 44 81 C32.78 81 21.56 81 10 81 C10 80.34 10 79.68 10 79 C21.22 79 32.44 79 44 79 C44 77.02 44 75.04 44 73 C32.78 73 21.56 73 10 73 C10 72.34 10 71.68 10 71 C21.88 71 33.76 71 46 71 C46.33 69.35 46.66 67.7 47 66 C35.12 65.67 23.24 65.34 11 65 C10.67 64.34 10.34 63.68 10 63 C11.19077148 63.02618408 12.38154297 63.05236816 13.60839844 63.0793457 C18.02878001 63.16988561 22.44907977 63.22726286 26.87011719 63.2746582 C28.78301783 63.29979381 30.69582251 63.33390784 32.60839844 63.37719727 C35.35896473 63.43789252 38.10826099 63.46621845 40.859375 63.48828125 C42.14083405 63.52699089 42.14083405 63.52699089 43.44818115 63.56648254 C44.24870911 63.5668602 45.04923706 63.56723785 45.87402344 63.56762695 C46.57573669 63.57873001 47.27744995 63.58983307 48.00042725 63.60127258 C50.80458709 62.96443393 50.80458709 62.96443393 54 58 C39.81 57.67 25.62 57.34 11 57 C11 56.67 11 56.34 11 56 C11.93294388 55.9845388 11.93294388 55.9845388 12.88473511 55.96876526 C19.34074709 55.86083465 25.79661569 55.74622596 32.25244141 55.62768555 C34.66386931 55.5842935 37.07532879 55.54262163 39.48681641 55.50268555 C42.94703706 55.44508631 46.40709812 55.38136221 49.8671875 55.31640625 C50.95055389 55.29969376 52.03392029 55.28298126 53.15011597 55.26576233 C54.65144577 55.2358445 54.65144577 55.2358445 56.18310547 55.20532227 C57.50881058 55.18200584 57.50881058 55.18200584 58.86129761 55.15821838 C61.0519722 55.13234999 61.0519722 55.13234999 63 54 C68.94 54 74.88 54 81 54 C81 36.84 81 19.68 81 2 C55.26 2 29.52 2 3 2 Z M50.44140625 65.8984375 C46.35772354 71.85242475 45.11891043 77.85058748 46 85 C47.51957309 92.74684318 52.6948319 99.06430036 59.13671875 103.45703125 C66.05262187 106.97085636 73.81041775 107.25187875 81.1875 104.9375 C88.22549744 101.84482761 93.20080176 96.76501848 96.30859375 89.796875 C98.55690618 83.95380316 99.08220886 78.4084522 97.1640625 72.3671875 C93.73324326 64.83780568 88.79778052 60.30845483 81.8125 56.0625 C68.83135489 52.44480382 58.8267189 55.50921023 50.44140625 65.8984375 Z " fill="#F5F8FB" transform="translate(1,2)"/>
<path d="M0 0 C5.61 0 11.22 0 17 0 C17 24.75 17 49.5 17 75 C15 72 15 72 13.80859375 69.73046875 C13.35613281 68.89128906 12.90367188 68.05210938 12.4375 67.1875 C12.00308594 66.35605469 11.56867188 65.52460937 11.12109375 64.66796875 C8.89998878 61.8742032 7.52241826 61.21916556 4.42236328 59.63549805 C1.47076541 57.69277042 0.21363413 56.72439245 -0.79618835 53.30027771 C-1.04262601 49.88894772 -1.01187567 46.58183059 -0.87890625 43.1640625 C-0.86617172 41.92957367 -0.85343719 40.69508484 -0.84031677 39.42318726 C-0.79001901 35.48844221 -0.67711245 31.55834562 -0.5625 27.625 C-0.51227334 24.95449451 -0.47628769 22.28403271 -0.43945312 19.61328125 C-0.34033455 13.07373559 -0.18506379 6.53765521 0 0 Z " fill="#FEFEFE" transform="translate(86,0)"/>
<path d="M0 0 C-0.4846875 0.27972656 -0.969375 0.55945312 -1.46875 0.84765625 C-9.56171486 5.68787177 -16.23335379 10.22617111 -19.37890625 19.453125 C-21.18337405 26.85257786 -19.81235224 32.08630074 -17 39 C-17 40.32 -17 41.64 -17 43 C-29.87 43 -42.74 43 -56 43 C-56.495 41.515 -56.495 41.515 -57 40 C-44.79 40 -32.58 40 -20 40 C-20.66 38.68 -21.32 37.36 -22 36 C-33.55 35.67 -45.1 35.34 -57 35 C-56.67 34.01 -56.34 33.02 -56 32 C-45.11 32 -34.22 32 -23 32 C-23 30.35 -23 28.7 -23 27 C-34.22 27 -45.44 27 -57 27 C-57 26.34 -57 25.68 -57 25 C-45.78 25 -34.56 25 -23 25 C-23 23.02 -23 21.04 -23 19 C-34.22 19 -45.44 19 -57 19 C-57 18.34 -57 17.68 -57 17 C-45.12 17 -33.24 17 -21 17 C-20.67 15.35 -20.34 13.7 -20 12 C-31.88 12 -43.76 12 -56 12 C-56.33 11.01 -56.66 10.02 -57 9 C-55.8039917 8.98541748 -54.6079834 8.97083496 -53.37573242 8.95581055 C-48.94183325 8.89787414 -44.50844442 8.82064126 -40.07495117 8.73754883 C-38.15543902 8.7042775 -36.23582852 8.67625246 -34.31616211 8.65356445 C-31.55800428 8.62005879 -28.80074957 8.56774597 -26.04296875 8.51171875 C-25.18350143 8.50532883 -24.32403412 8.4989389 -23.43852234 8.49235535 C-22.23761711 8.46266411 -22.23761711 8.46266411 -21.01245117 8.43237305 C-19.95655037 8.41571846 -19.95655037 8.41571846 -18.87931824 8.39872742 C-16.5347001 8.07965253 -16.5347001 8.07965253 -14 5 C-27.86 4.67 -41.72 4.34 -56 4 C-56 3.01 -56 2.02 -56 1 C-55.06705612 0.9845388 -55.06705612 0.9845388 -54.11526489 0.96876526 C-47.65925291 0.86083465 -41.20338431 0.74622596 -34.74755859 0.62768555 C-32.33613069 0.5842935 -29.92467121 0.54262163 -27.51318359 0.50268555 C-24.05296294 0.44508631 -20.59290188 0.38136221 -17.1328125 0.31640625 C-16.04944611 0.29969376 -14.96607971 0.28298126 -13.84988403 0.26576233 C-12.34855423 0.2358445 -12.34855423 0.2358445 -10.81689453 0.20532227 C-9.49118942 0.18200584 -9.49118942 0.18200584 -8.13870239 0.15821838 C-1.18689143 -0.35606743 -1.18689143 -0.35606743 0 0 Z " fill="#D7E8F9" transform="translate(68,56)"/>
<path d="M0 0 C0.33 0 0.66 0 1 0 C1 7.92 1 15.84 1 24 C-32.99 24 -66.98 24 -102 24 C-102 22.68 -102 21.36 -102 20 C-93.83763585 19.97683966 -85.67528541 19.95906605 -77.51289654 19.94818783 C-73.72285998 19.9429671 -69.93284589 19.9358841 -66.14282227 19.92456055 C-62.48591198 19.91370296 -58.82902332 19.90771705 -55.17209816 19.90512276 C-53.77623975 19.9032737 -52.38038253 19.89966301 -50.98453331 19.89426994 C-49.03096036 19.88702156 -47.07736569 19.88659162 -45.1237793 19.88647461 C-43.4549897 19.88314369 -43.4549897 19.88314369 -41.75248718 19.87974548 C-39 20 -39 20 -36 21 C-25.00119342 21.86237429 -17.43280735 20.70181693 -8.75 13.875 C-4.47543461 9.95094897 -2.21632052 5.29572739 0 0 Z " fill="#FEFEFE" transform="translate(102,90)"/>
<path d="M0 0 C6.21373056 2.30138169 11.0684595 5.98262738 14 12 C14 12.99 14 13.98 14 15 C15.32 14.67 16.64 14.34 18 14 C16.52307692 18.67692308 16.52307692 18.67692308 13.875 20.3125 C13.25625 20.539375 12.6375 20.76625 12 21 C10.62437146 19.71034824 9.29233607 18.37310707 8 17 C8 16.34 8 15.68 8 15 C9.32 15.33 10.64 15.66 12 16 C11.23997083 14.68121422 10.46656347 13.3701316 9.6875 12.0625 C9.25824219 11.33160156 8.82898438 10.60070312 8.38671875 9.84765625 C7.04889746 7.70022588 7.04889746 7.70022588 4 7 C3.67 7.66 3.34 8.32 3 9 C2.34 9 1.68 9 1 9 C1.33 7.35 1.66 5.7 2 4 C-0.97 3.505 -0.97 3.505 -4 3 C-4 4.32 -4 5.64 -4 7 C-4.66 7 -5.32 7 -6 7 C-6 5.68 -6 4.36 -6 3 C-7.65 3.33 -9.3 3.66 -11 4 C-11 5.65 -11 7.3 -11 9 C-11.66 9 -12.32 9 -13 9 C-13.33 8.34 -13.66 7.68 -14 7 C-15.98 7.99 -15.98 7.99 -18 9 C-17.34 10.65 -16.68 12.3 -16 14 C-17.65 14 -19.3 14 -21 14 C-21.33 15.32 -21.66 16.64 -22 18 C-20.68 18 -19.36 18 -18 18 C-18 18.99 -18 19.98 -18 21 C-19.32 21 -20.64 21 -22 21 C-21.67 22.65 -21.34 24.3 -21 26 C-19.35 25.67 -17.7 25.34 -16 25 C-16.33 25.99 -16.66 26.98 -17 28 C-17.66 28 -18.32 28 -19 28 C-17.35 29.65 -15.7 31.3 -14 33 C-13.67 32.01 -13.34 31.02 -13 30 C-12.34 30 -11.68 30 -11 30 C-11 31.65 -11 33.3 -11 35 C-7.535 35.495 -7.535 35.495 -4 36 C-4 36.99 -4 37.98 -4 39 C-9.11967429 39.63995929 -11.98543886 38.27691699 -16.10546875 35.49609375 C-20.46246571 32.05541367 -24.42674096 27.5462071 -25.3359375 21.921875 C-25.43985231 16.14421135 -24.54806658 11.66541352 -21 7 C-14.1715847 0.79234973 -9.18339827 -0.72842819 0 0 Z " fill="#D1E4F8" transform="translate(78,63)"/>
<path d="M0 0 C2 3 2 3 2 6 C1.01 6.33 0.02 6.66 -1 7 C-2.38576923 8.62332967 -3.72641268 10.28724465 -5 12 C-4.566875 12.39832031 -4.13375 12.79664063 -3.6875 13.20703125 C-2.8521875 14.00173828 -2.8521875 14.00173828 -2 14.8125 C-1.1646875 15.59560547 -1.1646875 15.59560547 -0.3125 16.39453125 C1 18 1 18 1 21 C-3.03314682 20.46348047 -4.94451681 18.45798792 -7.75 15.625 C-8.54921875 14.83351563 -9.3484375 14.04203125 -10.171875 13.2265625 C-12 11 -12 11 -12 8 C-9.69 8 -7.38 8 -5 8 C-5 7.34 -5 6.68 -5 6 C-6.65 6 -8.3 6 -10 6 C-10.33 4.68 -10.66 3.36 -11 2 C-8.69 2 -6.38 2 -4 2 C-3.67 2.66 -3.34 3.32 -3 4 C-3 3.34 -3 2.68 -3 2 C-2.01 2 -1.02 2 0 2 C0 1.34 0 0.68 0 0 Z " fill="#2682ED" transform="translate(65,13)"/>
<path d="M0 0 C11.82708703 -0.5592493 11.82708703 -0.5592493 16 3 C18.74891247 5.55712788 20.91553426 7.8733014 23 11 C23 11.99 23 12.98 23 14 C24.32 13.67 25.64 13.34 27 13 C25.52307692 17.67692308 25.52307692 17.67692308 22.875 19.3125 C22.25625 19.539375 21.6375 19.76625 21 20 C19.62437146 18.71034824 18.29233607 17.37310707 17 16 C17 15.34 17 14.68 17 14 C18.32 14.33 19.64 14.66 21 15 C20.23997083 13.68121422 19.46656347 12.3701316 18.6875 11.0625 C18.25824219 10.33160156 17.82898438 9.60070312 17.38671875 8.84765625 C16.04889746 6.70022588 16.04889746 6.70022588 13 6 C12.67 6.66 12.34 7.32 12 8 C11.34 8 10.68 8 10 8 C10.33 6.35 10.66 4.7 11 3 C8.03 2.505 8.03 2.505 5 2 C5 3.32 5 4.64 5 6 C4.34 6 3.68 6 3 6 C3 4.35 3 2.7 3 1 C2.01 0.67 1.02 0.34 0 0 Z " fill="#E8F1FA" transform="translate(69,64)"/>
<path d="M0 0 C10.23 0 20.46 0 31 0 C31 0.99 31 1.98 31 3 C20.77 3 10.54 3 0 3 C0 2.01 0 1.02 0 0 Z " fill="#CAE0F8" transform="translate(12,26)"/>
<path d="M0 0 C9.57 0 19.14 0 29 0 C29 0.99 29 1.98 29 3 C19.76 3 10.52 3 1 3 C0.67 2.01 0.34 1.02 0 0 Z " fill="#C7DEF8" transform="translate(11,34)"/>
<path d="M0 0 C0 0.99 0 1.98 0 3 C-12.87 3 -25.74 3 -39 3 C-39 2.34 -39 1.68 -39 1 C-33.76726191 0.85724064 -28.53451442 0.71483282 -23.30175781 0.57275391 C-21.52083069 0.52434855 -19.73990619 0.47584634 -17.95898438 0.42724609 C-15.40235057 0.35749384 -12.84570758 0.28808744 -10.2890625 0.21875 C-9.49005524 0.19687622 -8.69104797 0.17500244 -7.86782837 0.15246582 C-2.22774341 0 -2.22774341 0 0 0 Z " fill="#CDE2F9" transform="translate(51,96)"/>
<path d="M0 0 C2.31 0 4.62 0 7 0 C6.67 0.99 6.34 1.98 6 3 C5.34 3 4.68 3 4 3 C5.65 4.65 7.3 6.3 9 8 C9.33 7.01 9.66 6.02 10 5 C10.66 5 11.32 5 12 5 C12 6.65 12 8.3 12 10 C14.31 10.33 16.62 10.66 19 11 C19 11.99 19 12.98 19 14 C13.88459562 14.63942555 11.01818352 13.28075931 6.90234375 10.5 C4.04950204 8.25053139 2.0791842 5.98882729 0 3 C0 2.01 0 1.02 0 0 Z " fill="#E3EEFA" transform="translate(55,88)"/>
<path d="M0 0 C2 3 2 3 2 6 C1.01 6.33 0.02 6.66 -1 7 C-2.66710346 8.49985609 -2.66710346 8.49985609 -4 10 C-4.33 8.68 -4.66 7.36 -5 6 C-6.65 6 -8.3 6 -10 6 C-10.33 4.68 -10.66 3.36 -11 2 C-8.69 2 -6.38 2 -4 2 C-3.67 2.66 -3.34 3.32 -3 4 C-3 3.34 -3 2.68 -3 2 C-2.01 2 -1.02 2 0 2 C0 1.34 0 0.68 0 0 Z " fill="#378CEE" transform="translate(65,13)"/>
<path d="M0 0 C3.96 0 7.92 0 12 0 C11.67 0.99 11.34 1.98 11 3 C10.01 3 9.02 3 8 3 C8.33 4.32 8.66 5.64 9 7 C6.03 6.505 6.03 6.505 3 6 C4.32 5.67 5.64 5.34 7 5 C7 4.34 7 3.68 7 3 C4.36 3 1.72 3 -1 3 C-0.67 2.01 -0.34 1.02 0 0 Z " fill="#1377EB" transform="translate(54,12)"/>
<path d="M0 0 C0.33 0.99 0.66 1.98 1 3 C2.32 2.67 3.64 2.34 5 2 C3.52307692 6.67692308 3.52307692 6.67692308 0.875 8.3125 C-0.053125 8.6528125 -0.053125 8.6528125 -1 9 C-2.37562854 7.71034824 -3.70766393 6.37310707 -5 5 C-5 4.34 -5 3.68 -5 3 C-2.525 3.495 -2.525 3.495 0 4 C0 2.68 0 1.36 0 0 Z " fill="#DCEAF9" transform="translate(91,75)"/>
<path d="M0 0 C1.9375 0.75 1.9375 0.75 4 2 C4.75 4.125 4.75 4.125 5 6 C6.98 6 8.96 6 11 6 C10.67 6.99 10.34 7.98 10 9 C8.02 9 6.04 9 4 9 C0 2.25 0 2.25 0 0 Z " fill="#D4E6F8" transform="translate(68,75)"/>
<path d="M0 0 C2.31 0 4.62 0 7 0 C6.67 0.99 6.34 1.98 6 3 C5.34 3 4.68 3 4 3 C6.475 5.97 6.475 5.97 9 9 C8.01 9.33 7.02 9.66 6 10 C4.99106869 8.90398831 3.99311775 7.79786082 3 6.6875 C2.1646875 5.76517578 2.1646875 5.76517578 1.3125 4.82421875 C0 3 0 3 0 0 Z " fill="#ECF3FA" transform="translate(55,88)"/>
<path d="M0 0 C3.53586014 3.17320782 5.58578031 5.16743695 6 10 C5.67 9.34 5.34 8.68 5 8 C3.68352881 7.30062468 2.34977849 6.63270867 1 6 C0 5 0 5 -0.0625 2.4375 C-0.041875 1.633125 -0.02125 0.82875 0 0 Z " fill="#D9E9F9" transform="translate(51,96)"/>
<path d="M0 0 C1.52299523 2.93720508 2.80100302 5.9168649 4 9 C3.01 9.33 2.02 9.66 1 10 C-0.83691257 6.21812119 -1.15837626 4.05431692 0 0 Z " fill="#E6F0FA" transform="translate(47,87)"/>
<path d="M0 0 C2.31 0 4.62 0 7 0 C7 0.99 7 1.98 7 3 C5.02 3 3.04 3 1 3 C0.67 2.01 0.34 1.02 0 0 Z " fill="#C9E0F8" transform="translate(67,99)"/>
</svg>
